<svg width="150" height="150" viewBox="0 0 150 150" fill="none" xmlns="http://www.w3.org/2000/svg">
<Path d="M49.3717 63C47.0082 62.9977 44.7008 63.7253 42.7599 65.0848C42.4236 64.3434 41.8457 63.7404 41.1222 63.3761C40.3987 63.0118 39.5733 62.9082 38.7833 63.0825C37.9933 63.2568 37.2863 63.6985 36.7799 64.3341C36.2735 64.9697 35.9983 65.761 36 66.5762V89.4238C36 90.3723 36.3738 91.2819 37.0391 91.9526C37.7044 92.6232 38.6068 93 39.5477 93C40.4886 93 41.391 92.6232 42.0563 91.9526C42.7216 91.2819 43.0954 90.3723 43.0954 89.4238V84.5799C44.6155 85.5635 46.3422 86.1765 48.1383 86.3702C49.9344 86.5639 51.7506 86.333 53.4428 85.6959C55.135 85.0587 56.6566 84.0328 57.8869 82.6996C59.1172 81.3663 60.0223 79.7624 60.5305 78.0151C61.0387 76.2677 61.1359 74.4251 60.8145 72.6332C60.4931 70.8414 59.7618 69.1498 58.6788 67.6925C57.5958 66.2352 56.1907 65.0523 54.5752 64.2378C52.9596 63.4233 51.1779 62.9995 49.3716 63H49.3717ZM49.3717 79.7154C48.3919 79.7154 47.4341 79.4226 46.6195 78.8739C45.8048 78.3252 45.1699 77.5453 44.795 76.6328C44.42 75.7204 44.3219 74.7163 44.5131 73.7477C44.7042 72.779 45.176 71.8893 45.8688 71.1909C46.5616 70.4925 47.4443 70.0169 48.4052 69.8243C49.3661 69.6316 50.3622 69.7305 51.2674 70.1084C52.1726 70.4864 52.9462 71.1264 53.4906 71.9476C54.0349 72.7688 54.3254 73.7342 54.3254 74.7219C54.3254 76.0462 53.8035 77.3163 52.8745 78.2528C51.9455 79.1893 50.6855 79.7154 49.3717 79.7154Z" fill="url(#paint0_linear)"/>
<Path d="M49.3717 63C47.0082 62.9977 44.7008 63.7253 42.7599 65.0848C42.4236 64.3434 41.8457 63.7404 41.1222 63.3761C40.3987 63.0118 39.5733 62.9082 38.7833 63.0825C37.9933 63.2568 37.2863 63.6985 36.7799 64.3341C36.2735 64.9697 35.9983 65.761 36 66.5762V89.4238C36 90.3723 36.3738 91.2819 37.0391 91.9526C37.7044 92.6232 38.6068 93 39.5477 93C40.4886 93 41.391 92.6232 42.0563 91.9526C42.7216 91.2819 43.0954 90.3723 43.0954 89.4238V84.5799C44.6155 85.5635 46.3422 86.1765 48.1383 86.3702C49.9344 86.5639 51.7506 86.333 53.4428 85.6959C55.135 85.0587 56.6566 84.0328 57.8869 82.6996C59.1172 81.3663 60.0223 79.7624 60.5305 78.0151C61.0387 76.2677 61.1359 74.4251 60.8145 72.6332C60.4931 70.8414 59.7618 69.1498 58.6788 67.6925C57.5958 66.2352 56.1907 65.0523 54.5752 64.2378C52.9596 63.4233 51.1779 62.9995 49.3716 63H49.3717ZM49.3717 79.7154C48.3919 79.7154 47.4341 79.4226 46.6195 78.8739C45.8048 78.3252 45.1699 77.5453 44.795 76.6328C44.42 75.7204 44.3219 74.7163 44.5131 73.7477C44.7042 72.779 45.176 71.8893 45.8688 71.1909C46.5616 70.4925 47.4443 70.0169 48.4052 69.8243C49.3661 69.6316 50.3622 69.7305 51.2674 70.1084C52.1726 70.4864 52.9462 71.1264 53.4906 71.9476C54.0349 72.7688 54.3254 73.7342 54.3254 74.7219C54.3254 76.0462 53.8035 77.3163 52.8745 78.2528C51.9455 79.1893 50.6855 79.7154 49.3717 79.7154Z" fill="white"/>
<Path d="M105.372 63C103.008 62.9977 100.701 63.7253 98.7599 65.0848C98.4236 64.3434 97.8457 63.7404 97.1222 63.3761C96.3987 63.0118 95.5733 62.9082 94.7833 63.0825C93.9933 63.2568 93.2863 63.6985 92.7799 64.3341C92.2735 64.9697 91.9983 65.761 92 66.5762V89.4238C92 90.3723 92.3738 91.2819 93.0391 91.9526C93.7044 92.6232 94.6068 93 95.5477 93C96.4886 93 97.391 92.6232 98.0563 91.9526C98.7216 91.2819 99.0954 90.3723 99.0954 89.4238V84.5799C100.616 85.5635 102.342 86.1765 104.138 86.3702C105.934 86.5639 107.751 86.333 109.443 85.6959C111.135 85.0587 112.657 84.0328 113.887 82.6996C115.117 81.3663 116.022 79.7624 116.53 78.0151C117.039 76.2677 117.136 74.4251 116.814 72.6332C116.493 70.8414 115.762 69.1498 114.679 67.6925C113.596 66.2352 112.191 65.0523 110.575 64.2378C108.96 63.4233 107.178 62.9995 105.372 63ZM105.372 79.7154C104.392 79.7154 103.434 79.4226 102.619 78.8739C101.805 78.3252 101.17 77.5453 100.795 76.6328C100.42 75.7204 100.322 74.7163 100.513 73.7477C100.704 72.779 101.176 71.8893 101.869 71.1909C102.562 70.4925 103.444 70.0169 104.405 69.8243C105.366 69.6316 106.362 69.7305 107.267 70.1084C108.173 70.4864 108.946 71.1264 109.491 71.9476C110.035 72.7688 110.325 73.7342 110.325 74.7219C110.325 76.0462 109.804 77.3163 108.874 78.2528C107.945 79.1893 106.685 79.7154 105.372 79.7154Z" fill="url(#paint1_linear)"/>
<Path d="M105.372 63C103.008 62.9977 100.701 63.7253 98.7599 65.0848C98.4236 64.3434 97.8457 63.7404 97.1222 63.3761C96.3987 63.0118 95.5733 62.9082 94.7833 63.0825C93.9933 63.2568 93.2863 63.6985 92.7799 64.3341C92.2735 64.9697 91.9983 65.761 92 66.5762V89.4238C92 90.3723 92.3738 91.2819 93.0391 91.9526C93.7044 92.6232 94.6068 93 95.5477 93C96.4886 93 97.391 92.6232 98.0563 91.9526C98.7216 91.2819 99.0954 90.3723 99.0954 89.4238V84.5799C100.616 85.5635 102.342 86.1765 104.138 86.3702C105.934 86.5639 107.751 86.333 109.443 85.6959C111.135 85.0587 112.657 84.0328 113.887 82.6996C115.117 81.3663 116.022 79.7624 116.53 78.0151C117.039 76.2677 117.136 74.4251 116.814 72.6332C116.493 70.8414 115.762 69.1498 114.679 67.6925C113.596 66.2352 112.191 65.0523 110.575 64.2378C108.96 63.4233 107.178 62.9995 105.372 63ZM105.372 79.7154C104.392 79.7154 103.434 79.4226 102.619 78.8739C101.805 78.3252 101.17 77.5453 100.795 76.6328C100.42 75.7204 100.322 74.7163 100.513 73.7477C100.704 72.779 101.176 71.8893 101.869 71.1909C102.562 70.4925 103.444 70.0169 104.405 69.8243C105.366 69.6316 106.362 69.7305 107.267 70.1084C108.173 70.4864 108.946 71.1264 109.491 71.9476C110.035 72.7688 110.325 73.7342 110.325 74.7219C110.325 76.0462 109.804 77.3163 108.874 78.2528C107.945 79.1893 106.685 79.7154 105.372 79.7154Z" fill="white"/>
<Path d="M75.5 63C73.0277 63 70.611 63.7331 68.5554 65.1066C66.4998 66.4801 64.8976 68.4324 63.9515 70.7165C63.0054 73.0005 62.7579 75.5139 63.2402 77.9386C63.7225 80.3634 64.913 82.5907 66.6612 84.3388C68.4093 86.087 70.6366 87.2775 73.0614 87.7598C75.4861 88.2421 77.9995 87.9946 80.2836 87.0485C82.5676 86.1024 84.5199 84.5002 85.8934 82.4446C87.2669 80.389 88 77.9722 88 75.5C88 72.1848 86.683 69.0054 84.3388 66.6612C81.9946 64.317 78.8152 63 75.5 63ZM75.5 80.825C74.4468 80.825 73.4173 80.5127 72.5416 79.9276C71.6659 79.3425 70.9833 78.5108 70.5803 77.5378C70.1773 76.5648 70.0718 75.4941 70.2773 74.4611C70.4828 73.4282 70.9899 72.4793 71.7346 71.7346C72.4794 70.9899 73.4282 70.4827 74.4611 70.2773C75.4941 70.0718 76.5648 70.1772 77.5378 70.5803C78.5108 70.9833 79.3425 71.6658 79.9276 72.5415C80.5127 73.4172 80.825 74.4468 80.825 75.5C80.825 76.9123 80.264 78.2667 79.2654 79.2653C78.2667 80.264 76.9123 80.825 75.5 80.825V80.825Z" fill="url(#paint2_linear)"/>
<Path d="M75.5 63C73.0277 63 70.611 63.7331 68.5554 65.1066C66.4998 66.4801 64.8976 68.4324 63.9515 70.7165C63.0054 73.0005 62.7579 75.5139 63.2402 77.9386C63.7225 80.3634 64.913 82.5907 66.6612 84.3388C68.4093 86.087 70.6366 87.2775 73.0614 87.7598C75.4861 88.2421 77.9995 87.9946 80.2836 87.0485C82.5676 86.1024 84.5199 84.5002 85.8934 82.4446C87.2669 80.389 88 77.9722 88 75.5C88 72.1848 86.683 69.0054 84.3388 66.6612C81.9946 64.317 78.8152 63 75.5 63ZM75.5 80.825C74.4468 80.825 73.4173 80.5127 72.5416 79.9276C71.6659 79.3425 70.9833 78.5108 70.5803 77.5378C70.1773 76.5648 70.0718 75.4941 70.2773 74.4611C70.4828 73.4282 70.9899 72.4793 71.7346 71.7346C72.4794 70.9899 73.4282 70.4827 74.4611 70.2773C75.4941 70.0718 76.5648 70.1772 77.5378 70.5803C78.5108 70.9833 79.3425 71.6658 79.9276 72.5415C80.5127 73.4172 80.825 74.4468 80.825 75.5C80.825 76.9123 80.264 78.2667 79.2654 79.2653C78.2667 80.264 76.9123 80.825 75.5 80.825V80.825Z" fill="white"/>
<Circle cx="75" cy="75" r="75" fill="url(#paint3_radial)"/>
<Defs>
<linearGradient id="paint0_linear" x1="37.625" y1="93" x2="64.0197" y2="67.6183" gradientUnits="userSpaceOnUse">
<stop stop-color="#2755F5" stop-opacity="0.797125"/>
<stop offset="0.836309" stop-color="#FF67F0"/>
</linearGradient>
<linearGradient id="paint1_linear" x1="93.625" y1="93" x2="120.02" y2="67.6183" gradientUnits="userSpaceOnUse">
<stop stop-color="#2755F5" stop-opacity="0.797125"/>
<stop offset="0.836309" stop-color="#FF67F0"/>
</linearGradient>
<linearGradient id="paint2_linear" x1="64.625" y1="88" x2="86.4137" y2="62.857" gradientUnits="userSpaceOnUse">
<stop stop-color="#2755F5" stop-opacity="0.797125"/>
<stop offset="0.836309" stop-color="#FF67F0"/>
</linearGradient>
<radialGradient id="paint3_radial" cx="0" cy="0" r="1" gradientUnits="userSpaceOnUse" gradientTransform="translate(105 51.5) rotate(133.63) scale(73.9138)">
<stop offset="0.125" stop-color="#DCF9FB" stop-opacity="0.5"/>
<stop offset="1" stop-color="#1AB2B6" stop-opacity="0.77"/>
</radialGradient>
</Defs>
</svg>
